<svg xmlns="http://www.w3.org/2000/svg" width="24" height="24" fill="none"><path d="M19 3H5a2 2 0 0 0-2 2v14a2 2 0 0 0 2 2h14a2 2 0 0 0 2-2V5a2 2 0 0 0-2-2zm-1.95 6.514v.343c0 3.257-2.486 7.03-7.03 7.03-1.37 0-2.657-.43-3.77-1.114h.6c1.114 0 2.23-.43 3.086-1.03-1.114 0-1.97-.77-2.314-1.714.17 0 .343.086.43.086.257 0 .43 0 .686-.086-1.114-.257-1.97-1.2-1.97-2.4.343.17.686.257 1.114.343-.686-.6-1.114-1.286-1.114-2.143 0-.43.086-.857.343-1.2 1.2 1.457 3 2.486 5.057 2.57 0-.17-.086-.343-.086-.6a2.49 2.49 0 0 1 2.486-2.486c.686 0 1.37.257 1.8.77.6-.086 1.114-.343 1.543-.6-.17.6-.6 1.03-1.114 1.37.514-.086.943-.17 1.457-.43-.345.516-.773.944-1.202 1.287z" fill="#2f1c6a"/></svg>